<svg width="150" height="40" viewBox="0 0 1041.72 257.6" fill="none" xmlns="http://www.w3.org/2000/svg">
   <defs>
    <style>
      .cls-1 {
        fill: #f5ac00;
      }

      .cls-1, .cls-2 {
        stroke-width: 0px;
      }

      .cls-2 {
        fill: #063;
      }
    </style>
  </defs>
  <g>
    <rect class="cls-1" x="114.52" y="5.92" width="28.56" height="28.56" transform="translate(52.01 -85.16) rotate(45)"/>
    <rect class="cls-1" x="114.52" y="223.12" width="28.56" height="28.56" transform="translate(52.01 496.35) rotate(-135)"/>
    <rect class="cls-1" x="223.12" y="114.52" width="28.56" height="28.56" transform="translate(496.35 52.01) rotate(135)"/>
    <rect class="cls-1" x="5.92" y="114.52" width="28.56" height="28.56" transform="translate(-85.16 52.01) rotate(-45)"/>
    <path class="cls-2" d="m203.54,128.56l-15.9-15.9,27.03-27.03-42.93-42.93-27.03,27.03-15.9-15.9-15.9,15.9-27.03-27.03-42.93,42.93,27.03,27.03-15.92,15.92,15.9,15.9-27.01,27.01,42.93,42.93,27.01-27.01,15.9,15.9,15.92-15.92,27.03,27.03,42.93-42.93-27.03-27.03,15.9-15.9Zm-64.21,10.34c-5.58,5.58-14.62,5.58-20.2,0-5.58-5.58-5.58-14.62,0-20.2,5.58-5.58,14.62-5.58,20.2,0,5.58,5.58,5.58,14.62,0,20.2Z"/>
  </g>
  <g>
    <g>
      <path class="cls-2" d="m288.98,144.47l.06-76.02,25.55.02c5.72,0,10.62.82,14.69,2.45,4.07,1.63,7.17,3.99,9.3,7.07,2.13,3.08,3.2,6.72,3.2,10.92,0,2.61-.52,4.98-1.56,7.11-1.04,2.14-2.43,3.94-4.19,5.43-1.76,1.48-3.71,2.66-5.85,3.53v-2.17c4.48,1.31,8.05,3.59,10.7,6.85,2.65,3.26,3.98,7.24,3.97,11.95,0,4.49-1.08,8.43-3.22,11.83-2.14,3.4-5.4,6.1-9.78,8.08-4.38,1.99-9.81,2.98-16.29,2.97l-26.58-.02Zm27.11-14.86c2.14,0,3.95-.36,5.43-1.08,1.48-.72,2.62-1.74,3.42-3.04.79-1.3,1.19-2.75,1.19-4.34,0-1.66-.4-3.13-1.19-4.4-.79-1.27-1.93-2.26-3.41-2.99-1.48-.72-3.29-1.09-5.43-1.09h-10.34s0-13.47,0-13.47h8.27c2,0,3.72-.33,5.17-1.02,1.45-.69,2.54-1.63,3.26-2.82.73-1.19,1.09-2.55,1.09-4.07,0-2.39-.84-4.31-2.53-5.76-1.69-1.45-4.02-2.17-6.98-2.18h-6.62s-.03,46.26-.03,46.26h8.69Z"/>
      <path class="cls-2" d="m355.64,77.74v-14.66s18.11.01,18.11.01v14.66s-18.11-.01-18.11-.01Zm.26,66.79l.04-56.58h17.58s-.04,56.59-.04,56.59h-17.58Z"/>
      <path class="cls-2" d="m385.09,123.04v-15.31s32.59.02,32.59.02v15.31s-32.59-.02-32.59-.02Z"/>
      <path class="cls-2" d="m460.78,146.01c-6.28,0-11.74-1.33-16.39-3.98-4.65-2.65-8.2-6.4-10.65-11.25-2.44-4.85-3.66-10.36-3.66-16.51l.03-45.72h18.31s-.03,44.54-.03,44.54c0,2.97.43,5.59,1.29,7.87.86,2.28,2.25,4.09,4.18,5.43,1.93,1.34,4.24,2.01,6.93,2.01,2.9,0,5.28-.66,7.14-2,1.86-1.34,3.24-3.15,4.14-5.43.9-2.28,1.35-4.9,1.35-7.87l.03-44.53h18.41s-.03,45.73-.03,45.73c0,6.15-1.27,11.66-3.79,16.5-2.52,4.85-6.13,8.59-10.82,11.23-4.69,2.64-10.17,3.96-16.45,3.95Z"/>
      <path class="cls-2" d="m508.05,144.64l.06-76.02,26.69.02c5.79,0,10.84,1.08,15.15,3.21,4.31,2.14,7.63,5.13,9.97,8.97,2.34,3.84,3.51,8.29,3.51,13.36,0,5.07-1.18,9.54-3.53,13.41-2.35,3.87-5.68,6.86-9.99,8.95-4.31,2.1-9.36,3.14-15.16,3.14h-11.58s.01-16.41.01-16.41h10.65c2.28,0,4.24-.37,5.9-1.13s2.9-1.84,3.73-3.25c.83-1.41,1.24-2.99,1.24-4.72,0-1.81-.41-3.38-1.24-4.72-.83-1.34-2.07-2.43-3.72-3.26-1.65-.83-3.62-1.25-5.89-1.25h-7.34s-.04,59.72-.04,59.72h-18.41Z"/>
      <path class="cls-2" d="m575.18,144.69l.06-76.02,26.69.02c5.79,0,10.84,1.08,15.15,3.21,4.31,2.14,7.63,5.11,9.97,8.91,2.34,3.8,3.51,8.2,3.51,13.2,0,5-1.18,9.38-3.53,13.14-2.35,3.76-5.68,6.66-9.99,8.68-4.31,2.02-9.36,3.03-15.16,3.03h-11.58s.01-15.76.01-15.76h10.65c2.28,0,4.24-.37,5.9-1.13,1.66-.76,2.9-1.83,3.73-3.2.83-1.37,1.24-2.97,1.25-4.78,0-1.81-.41-3.38-1.24-4.72-.83-1.34-2.07-2.43-3.72-3.26-1.65-.83-3.62-1.25-5.9-1.25h-7.34s-.04,59.94-.04,59.94h-18.41Zm41.79.03l-25.83-33.79,22.03.02,25.83,33.79-22.03-.02Z"/>
      <path class="cls-2" d="m681.19,146.18c-7.03,0-13.51-1.66-19.44-4.96-5.93-3.3-10.65-7.94-14.16-13.91-3.51-5.98-5.26-12.84-5.26-20.58,0-7.75,1.77-14.6,5.29-20.58,3.52-5.97,8.25-10.6,14.18-13.89,5.93-3.29,12.42-4.93,19.45-4.93,7.03,0,13.5,1.66,19.39,4.96,5.89,3.3,10.63,7.94,14.21,13.91,3.58,5.98,5.37,12.84,5.36,20.58,0,7.75-1.8,14.61-5.39,20.58-3.59,5.97-8.33,10.6-14.23,13.89-5.9,3.29-12.36,4.93-19.4,4.93Zm.01-17.59c3.86,0,7.34-.92,10.45-2.76,3.1-1.84,5.52-4.43,7.25-7.76,1.72-3.33,2.59-7.09,2.59-11.29,0-4.2-.86-7.96-2.58-11.3-1.72-3.33-4.13-5.92-7.23-7.77-3.1-1.85-6.58-2.77-10.45-2.78-3.86,0-7.34.92-10.45,2.76s-5.5,4.43-7.19,7.76c-1.69,3.33-2.54,7.09-2.54,11.29,0,4.2.84,7.97,2.53,11.3,1.69,3.33,4.08,5.92,7.18,7.77s6.58,2.77,10.44,2.78Z"/>
      <path class="cls-2" d="m767.87,146.24c-6.97,0-13.39-1.64-19.29-4.9-5.89-3.26-10.6-7.88-14.11-13.86-3.51-5.98-5.27-12.87-5.26-20.69,0-7.82,1.77-14.71,5.29-20.68,3.52-5.97,8.23-10.58,14.13-13.84,5.9-3.25,12.33-4.88,19.29-4.87,5.86,0,11.36,1.2,16.49,3.6,5.13,2.39,9.51,5.87,13.13,10.43,3.62,4.56,6.11,9.92,7.49,16.08h-19.03c-1.51-3.85-3.86-6.89-7.03-9.14-3.17-2.25-6.86-3.37-11.06-3.37-3.79,0-7.23.94-10.29,2.82-3.07,1.88-5.45,4.49-7.14,7.81-1.69,3.33-2.54,7.06-2.54,11.18,0,4.13.84,7.86,2.53,11.19,1.69,3.33,4.06,5.94,7.13,7.82,3.07,1.89,6.5,2.83,10.29,2.83,4.34,0,8.1-1.12,11.28-3.36,3.17-2.24,5.49-5.28,6.94-9.12h19.03c-1.45,6.17-3.97,11.52-7.56,16.08-3.59,4.56-7.97,8.03-13.14,10.42s-10.69,3.58-16.55,3.57Z"/>
      <path class="cls-2" d="m805.83,144.86l27.57-76h19.34s27.35,76.05,27.35,76.05h-18.82s-7.53-22.93-7.53-22.93l-.21-3.04-12.69-37.37h4.24s-12.65,37.35-12.65,37.35l-.31,3.04-7.57,22.91h-18.72Zm17.91-14.86v-15.86s38.7.03,38.7.03v15.86s-38.7-.03-38.7-.03Z"/>
      <path class="cls-2" d="m920.22,146.35c-6.97,0-13.39-1.64-19.29-4.9s-10.6-7.88-14.11-13.86c-3.51-5.98-5.27-12.87-5.26-20.69,0-7.82,1.77-14.71,5.29-20.68,3.52-5.97,8.23-10.58,14.13-13.84,5.9-3.25,12.33-4.88,19.29-4.87,5.86,0,11.36,1.2,16.49,3.6,5.13,2.39,9.51,5.87,13.13,10.43,3.62,4.56,6.11,9.92,7.49,16.08h-19.03c-1.51-3.85-3.86-6.89-7.03-9.14-3.17-2.25-6.86-3.37-11.06-3.37-3.79,0-7.23.94-10.29,2.82-3.07,1.88-5.45,4.49-7.14,7.81-1.69,3.33-2.54,7.06-2.54,11.18,0,4.13.84,7.86,2.53,11.19,1.69,3.33,4.06,5.94,7.13,7.82,3.07,1.89,6.5,2.83,10.29,2.83,4.34,0,8.1-1.12,11.28-3.36,3.17-2.24,5.49-5.28,6.94-9.12h19.03c-1.45,6.17-3.97,11.52-7.56,16.08-3.59,4.56-7.97,8.03-13.14,10.42-5.17,2.39-10.69,3.58-16.55,3.57Z"/>
      <path class="cls-2" d="m970.08,144.98l.06-76.02h18.41s-.06,76.03-.06,76.03h-18.41Zm11.81-29.96v-17.48s38.9.03,38.9.03v17.48s-38.9-.03-38.9-.03Zm32.15,30l.06-76.02h18.51s-.06,76.03-.06,76.03h-18.51Z"/>
    </g>
    <g>
      <path class="cls-1" d="m300.35,194.24c-3.01,0-5.44-.76-7.3-2.29-1.85-1.52-2.78-3.57-2.78-6.12h2.1c0,1.99.73,3.57,2.2,4.75,1.46,1.18,3.39,1.76,5.78,1.76,2.18,0,3.96-.54,5.34-1.61,1.38-1.07,2.08-2.47,2.08-4.2,0-.49-.05-.94-.14-1.36-.09-.41-.26-.77-.5-1.08-.24-.31-.48-.59-.71-.83-.23-.25-.57-.48-1.03-.7-.46-.22-.84-.39-1.15-.52-.31-.13-.76-.28-1.35-.45-.59-.17-1.06-.29-1.39-.37-.34-.08-.84-.18-1.51-.31-.83-.18-1.47-.32-1.91-.43-.44-.1-1.04-.27-1.79-.5-.75-.23-1.34-.46-1.75-.68-.42-.22-.89-.51-1.43-.87-.54-.36-.94-.75-1.21-1.16-.27-.41-.5-.92-.71-1.53-.2-.61-.3-1.27-.3-2,0-2.22.84-3.98,2.52-5.29,1.68-1.3,3.92-1.96,6.71-1.96s4.92.7,6.55,2.09c1.63,1.39,2.44,3.25,2.44,5.58h-2.02c0-1.76-.65-3.16-1.93-4.22-1.29-1.06-2.98-1.59-5.08-1.59-1.4,0-2.64.22-3.73.66-1.09.44-1.93,1.06-2.54,1.86-.6.8-.91,1.74-.91,2.83,0,.52.08,1,.24,1.43.16.44.36.81.58,1.12.23.31.56.6,1.01.87.44.27.83.48,1.17.64.34.16.83.33,1.49.52.66.19,1.17.34,1.55.43.38.09.94.21,1.69.37.86.18,1.51.33,1.96.45s1.05.29,1.81.52c.77.23,1.36.46,1.77.68.42.22.89.52,1.43.89.54.38.95.78,1.23,1.22s.52.97.73,1.59c.2.62.3,1.3.3,2.05,0,2.35-.89,4.23-2.66,5.64-1.77,1.41-4.06,2.11-6.85,2.11Z"/>
      <path class="cls-1" d="m315.75,168.67v-2.67h2.46v2.67h-2.46Zm.24,25.26v-20.92h1.98v20.92h-1.98Z"/>
      <path class="cls-1" d="m332.48,182.12c.73.1,1.28.19,1.67.27.39.08.92.2,1.59.37.67.17,1.2.34,1.57.5.38.17.81.41,1.29.72.48.31.85.65,1.11,1.03s.47.84.65,1.39c.17.56.26,1.17.26,1.84,0,1.83-.76,3.31-2.28,4.44-1.52,1.12-3.54,1.68-6.07,1.68s-4.45-.57-5.95-1.7c-1.49-1.14-2.32-2.69-2.48-4.65h1.93c.16,1.45.82,2.57,1.98,3.37,1.16.8,2.69,1.2,4.6,1.2,1.24,0,2.33-.17,3.29-.52.95-.35,1.7-.85,2.24-1.49.54-.65.81-1.41.81-2.29,0-.62-.13-1.17-.4-1.65-.27-.48-.58-.85-.95-1.12-.36-.27-.88-.52-1.55-.75-.67-.23-1.25-.39-1.73-.48s-1.16-.21-2.02-.37c-.56-.08-.99-.14-1.29-.19-.3-.05-.7-.13-1.21-.25-.51-.12-.91-.22-1.21-.31-.3-.09-.65-.22-1.07-.39-.42-.17-.75-.35-.99-.54-.24-.19-.5-.42-.79-.68s-.5-.54-.65-.85c-.15-.31-.28-.67-.38-1.07-.11-.4-.16-.83-.16-1.3,0-1.7.73-3.09,2.18-4.15,1.45-1.06,3.35-1.59,5.68-1.59s4.25.54,5.66,1.63c1.41,1.08,2.17,2.56,2.28,4.42h-1.89c-.11-1.37-.69-2.43-1.75-3.2-1.06-.76-2.51-1.14-4.33-1.14s-3.2.36-4.27,1.08c-1.08.72-1.61,1.68-1.61,2.87,0,.41.06.78.18,1.1.12.32.27.6.44.83.17.23.44.45.79.64.35.19.67.34.95.45.28.1.69.22,1.21.35.52.13.95.22,1.27.27.32.05.79.13,1.41.23Zm21.77,10.04h2.38v1.78h-2.62c-1.4,0-2.61-.26-3.65-.79-1.04-.53-1.83-1.3-2.38-2.31-.55-1.01-.83-2.2-.83-3.56v-12.52h-3.63v-.43l5.24-5h.36v3.68h7.34v1.74h-7.34v12.48c0,1.58.44,2.79,1.33,3.64.89.85,2.15,1.28,3.79,1.28Z"/>
      <path class="cls-1" d="m381.78,183.39c0,.18-.01.43-.04.74h-19.75c.11,1.63.56,3.07,1.35,4.34.79,1.27,1.86,2.25,3.2,2.96,1.34.71,2.83,1.07,4.47,1.07,1.77,0,3.35-.41,4.74-1.22,1.38-.81,2.48-1.96,3.29-3.43h2.1c-.99,2.09-2.37,3.7-4.11,4.82-1.75,1.12-3.75,1.68-6.01,1.68-3.14,0-5.76-1.04-7.86-3.12-2.1-2.08-3.14-4.68-3.14-7.81s1.05-5.65,3.16-7.73c2.11-2.08,4.72-3.12,7.84-3.12s5.72,1.03,7.74,3.1c2.02,2.07,3.02,4.64,3.02,7.71Zm-10.76-8.99c-2.42,0-4.46.74-6.13,2.23-1.67,1.49-2.62,3.39-2.86,5.71h17.82c-.11-1.16-.41-2.24-.91-3.24-.5-.99-1.14-1.84-1.91-2.54-.78-.7-1.69-1.23-2.72-1.61-1.03-.37-2.13-.56-3.28-.56Z"/>
      <path class="cls-1" d="m411.52,172.58c1.45,0,2.74.34,3.87,1.03,1.13.68,2,1.63,2.62,2.85.62,1.21.93,2.62.93,4.22v13.25h-1.98v-12.75c0-2.09-.52-3.76-1.57-5-1.05-1.24-2.46-1.86-4.23-1.86-1.99,0-3.63.71-4.92,2.13-1.29,1.42-1.94,3.24-1.94,5.46v12.01h-1.93v-12.75c0-2.12-.52-3.79-1.57-5.02-1.05-1.23-2.47-1.84-4.27-1.84-1.29,0-2.46.32-3.51.97-1.05.65-1.87,1.54-2.46,2.69-.59,1.15-.89,2.46-.89,3.93v12.01h-1.98v-20.92h1.49l.36,3.72c.48-.88,1.1-1.62,1.85-2.23.75-.61,1.6-1.08,2.54-1.41.94-.33,1.93-.5,2.98-.5,1.64,0,3.06.43,4.27,1.3,1.21.87,2.07,2.05,2.58,3.54.7-1.5,1.73-2.68,3.1-3.54,1.37-.87,2.92-1.3,4.64-1.3Z"/>
      <path class="cls-1" d="m445.5,173.01h1.61v20.92h-1.69l-.2-4.53c-.97,1.55-2.28,2.76-3.93,3.64-1.65.88-3.5,1.32-5.54,1.32-3.2,0-5.86-1.04-7.98-3.12-2.12-2.08-3.18-4.67-3.18-7.77s1.06-5.69,3.18-7.77c2.12-2.08,4.78-3.12,7.98-3.12,2.04,0,3.89.45,5.54,1.34,1.65.89,2.96,2.11,3.93,3.66l.28-4.57Zm-9.63,19.49c1.75,0,3.33-.39,4.74-1.16,1.41-.78,2.51-1.85,3.31-3.24.79-1.38,1.19-2.93,1.19-4.63,0-2.61-.87-4.77-2.62-6.47-1.75-1.7-3.95-2.56-6.61-2.56s-4.87.86-6.63,2.58c-1.76,1.72-2.64,3.87-2.64,6.45s.88,4.73,2.64,6.45c1.76,1.72,3.97,2.58,6.63,2.58Z"/>
      <path class="cls-1" d="m484.88,165.61h1.98v28.32h-1.57l-.28-4.38c-.99,1.5-2.3,2.67-3.93,3.53-1.63.85-3.45,1.28-5.46,1.28-3.2,0-5.85-1.04-7.96-3.12s-3.16-4.67-3.16-7.77,1.05-5.72,3.16-7.79,4.76-3.1,7.96-3.1c1.99,0,3.78.41,5.38,1.24,1.6.83,2.9,1.96,3.89,3.41v-11.62Zm-9.15,26.89c2.69,0,4.9-.86,6.65-2.58s2.62-3.87,2.62-6.45-.87-4.77-2.62-6.47c-1.75-1.7-3.96-2.56-6.65-2.56-1.72,0-3.29.39-4.72,1.16-1.42.78-2.53,1.85-3.33,3.24-.79,1.38-1.19,2.93-1.19,4.63,0,2.58.88,4.73,2.64,6.45s3.96,2.58,6.59,2.58Z"/>
      <path class="cls-1" d="m514.63,183.39c0,.18-.01.43-.04.74h-19.75c.11,1.63.56,3.07,1.35,4.34s1.86,2.25,3.21,2.96c1.34.71,2.83,1.07,4.47,1.07,1.77,0,3.35-.41,4.74-1.22s2.48-1.96,3.29-3.43h2.1c-.99,2.09-2.36,3.7-4.11,4.82-1.75,1.12-3.75,1.68-6.01,1.68-3.14,0-5.76-1.04-7.86-3.12-2.1-2.08-3.14-4.68-3.14-7.81s1.05-5.65,3.16-7.73c2.11-2.08,4.72-3.12,7.84-3.12s5.72,1.03,7.74,3.1,3.02,4.64,3.02,7.71Zm-10.76-8.99c-2.42,0-4.46.74-6.13,2.23s-2.62,3.39-2.86,5.71h17.82c-.11-1.16-.41-2.24-.91-3.24-.5-.99-1.14-1.84-1.92-2.54s-1.69-1.23-2.72-1.61c-1.03-.37-2.13-.56-3.29-.56Z"/>
      <path class="cls-1" d="m532.32,193.93v-27.12h2.01v27.12h-2.01Z"/>
      <path class="cls-1" d="m552.76,172.58c2.58,0,4.64.82,6.17,2.46,1.53,1.64,2.3,3.79,2.3,6.45v12.44h-1.98v-12.05c0-2.38-.61-4.23-1.83-5.56-1.22-1.33-2.92-2-5.1-2s-3.94.76-5.46,2.27-2.28,3.31-2.28,5.41v11.93h-1.97v-20.92h1.49l.36,4.22c.81-1.42,1.95-2.55,3.43-3.39,1.48-.84,3.1-1.26,4.88-1.26Z"/>
      <path class="cls-1" d="m576.58,192.15h2.38v1.78h-2.62c-2.12,0-3.8-.59-5.02-1.78-1.22-1.19-1.83-2.82-1.83-4.88v-12.52h-3.63v-.43l5.24-5h.36v3.68h7.34v1.74h-7.34v12.48c0,1.58.44,2.79,1.33,3.64.89.85,2.15,1.28,3.79,1.28Z"/>
      <path class="cls-1" d="m603.71,183.39c0,.18-.01.43-.04.74h-19.75c.11,1.63.56,3.07,1.35,4.34s1.86,2.25,3.21,2.96c1.34.71,2.83,1.07,4.47,1.07,1.77,0,3.35-.41,4.74-1.22s2.48-1.96,3.29-3.43h2.1c-.99,2.09-2.36,3.7-4.11,4.82-1.75,1.12-3.75,1.68-6.01,1.68-3.14,0-5.76-1.04-7.86-3.12-2.1-2.08-3.14-4.68-3.14-7.81s1.05-5.65,3.16-7.73c2.11-2.08,4.72-3.12,7.84-3.12s5.72,1.03,7.74,3.1,3.02,4.64,3.02,7.71Zm-10.76-8.99c-2.42,0-4.46.74-6.13,2.23s-2.62,3.39-2.86,5.71h17.82c-.11-1.16-.41-2.24-.91-3.24-.5-.99-1.14-1.84-1.92-2.54s-1.69-1.23-2.72-1.61c-1.03-.37-2.13-.56-3.29-.56Z"/>
      <path class="cls-1" d="m609.63,193.93v-28.32h1.97v28.32h-1.97Z"/>
      <path class="cls-1" d="m619.23,168.67v-2.67h2.46v2.67h-2.46Zm.24,25.26v-20.92h1.97v20.92h-1.97Z"/>
      <path class="cls-1" d="m647.56,173.01h1.37v17.9c0,3.38-.93,6.04-2.78,7.96-1.85,1.92-4.39,2.89-7.62,2.89-2.5,0-4.6-.58-6.31-1.74s-2.9-2.79-3.57-4.88h1.98c.59,1.55,1.58,2.75,2.98,3.6s3.04,1.28,4.92,1.28c2.61,0,4.67-.79,6.19-2.36,1.52-1.58,2.28-3.76,2.28-6.55v-2.36c-.62.91-1.37,1.69-2.26,2.36s-1.9,1.19-3.04,1.55c-1.14.36-2.34.54-3.61.54-3.01,0-5.54-.98-7.58-2.94s-3.06-4.42-3.06-7.36,1.03-5.33,3.08-7.32c2.06-1.99,4.57-2.98,7.56-2.98,1.96,0,3.74.44,5.34,1.32,1.6.88,2.87,2.07,3.81,3.57l.32-4.46Zm-15.58,15.94c1.68,1.61,3.78,2.42,6.31,2.42s4.61-.8,6.25-2.4c1.64-1.6,2.46-3.62,2.46-6.06s-.83-4.47-2.48-6.08c-1.65-1.61-3.73-2.42-6.23-2.42s-4.63.81-6.31,2.44c-1.68,1.63-2.52,3.65-2.52,6.06s.84,4.43,2.52,6.04Z"/>
      <path class="cls-1" d="m676.75,183.39c0,.18-.01.43-.04.74h-19.75c.11,1.63.56,3.07,1.35,4.34s1.86,2.25,3.21,2.96c1.34.71,2.83,1.07,4.47,1.07,1.77,0,3.35-.41,4.74-1.22s2.48-1.96,3.29-3.43h2.1c-.99,2.09-2.36,3.7-4.11,4.82-1.75,1.12-3.75,1.68-6.01,1.68-3.14,0-5.76-1.04-7.86-3.12-2.1-2.08-3.14-4.68-3.14-7.81s1.05-5.65,3.16-7.73c2.11-2.08,4.72-3.12,7.84-3.12s5.72,1.03,7.74,3.1,3.02,4.64,3.02,7.71Zm-10.76-8.99c-2.42,0-4.46.74-6.13,2.23s-2.62,3.39-2.86,5.71h17.82c-.11-1.16-.41-2.24-.91-3.24-.5-.99-1.14-1.84-1.92-2.54s-1.69-1.23-2.72-1.61c-1.03-.37-2.13-.56-3.29-.56Z"/>
      <path class="cls-1" d="m692.83,172.58c2.58,0,4.64.82,6.17,2.46,1.53,1.64,2.3,3.79,2.3,6.45v12.44h-1.98v-12.05c0-2.38-.61-4.23-1.83-5.56-1.22-1.33-2.92-2-5.1-2s-3.94.76-5.46,2.27-2.28,3.31-2.28,5.41v11.93h-1.97v-20.92h1.49l.36,4.22c.81-1.42,1.95-2.55,3.43-3.39,1.48-.84,3.1-1.26,4.88-1.26Z"/>
      <path class="cls-1" d="m718.14,194.36c-3.17,0-5.83-1.04-7.98-3.12-2.15-2.08-3.22-4.67-3.22-7.77s1.07-5.72,3.21-7.79c2.14-2.07,4.8-3.1,8-3.1,2.44,0,4.59.63,6.43,1.88s3.12,2.92,3.85,5.02h-1.98c-.73-1.58-1.82-2.81-3.29-3.7-1.46-.89-3.14-1.34-5.02-1.34-2.63,0-4.82.86-6.57,2.58-1.75,1.72-2.62,3.87-2.62,6.45s.88,4.7,2.64,6.43,3.94,2.6,6.55,2.6c1.85,0,3.51-.45,4.98-1.34,1.46-.89,2.59-2.15,3.37-3.78h2.01c-.78,2.14-2.1,3.84-3.95,5.09-1.85,1.25-3.99,1.88-6.41,1.88Z"/>
      <path class="cls-1" d="m733.78,168.67v-2.67h2.46v2.67h-2.46Zm.24,25.26v-20.92h1.97v20.92h-1.97Z"/>
      <path class="cls-1" d="m762.92,173.01h1.61v20.92h-1.69l-.2-4.53c-.97,1.55-2.28,2.76-3.93,3.64-1.65.88-3.5,1.32-5.54,1.32-3.2,0-5.86-1.04-7.98-3.12-2.12-2.08-3.18-4.67-3.18-7.77s1.06-5.69,3.18-7.77c2.12-2.08,4.78-3.12,7.98-3.12,2.04,0,3.89.45,5.54,1.34,1.65.89,2.96,2.11,3.93,3.66l.28-4.57Zm-9.63,19.49c1.75,0,3.33-.39,4.74-1.16,1.41-.78,2.51-1.85,3.31-3.24.79-1.38,1.19-2.93,1.19-4.63,0-2.61-.87-4.77-2.62-6.47-1.75-1.7-3.95-2.56-6.61-2.56s-4.87.86-6.63,2.58c-1.76,1.72-2.64,3.87-2.64,6.45s.88,4.73,2.64,6.45,3.97,2.58,6.63,2.58Z"/>
      <path class="cls-1" d="m802.3,165.61h1.98v28.32h-1.57l-.28-4.38c-.99,1.5-2.3,2.67-3.93,3.53-1.63.85-3.45,1.28-5.46,1.28-3.2,0-5.85-1.04-7.96-3.12s-3.16-4.67-3.16-7.77,1.05-5.72,3.16-7.79,4.76-3.1,7.96-3.1c1.99,0,3.78.41,5.38,1.24,1.6.83,2.9,1.96,3.89,3.41v-11.62Zm-9.15,26.89c2.69,0,4.9-.86,6.65-2.58s2.62-3.87,2.62-6.45-.87-4.77-2.62-6.47c-1.75-1.7-3.96-2.56-6.65-2.56-1.72,0-3.29.39-4.72,1.16-1.42.78-2.53,1.85-3.33,3.24-.79,1.38-1.19,2.93-1.19,4.63,0,2.58.88,4.73,2.64,6.45s3.96,2.58,6.59,2.58Z"/>
      <path class="cls-1" d="m832.05,183.39c0,.18-.01.43-.04.74h-19.75c.11,1.63.56,3.07,1.35,4.34s1.86,2.25,3.21,2.96c1.34.71,2.83,1.07,4.47,1.07,1.77,0,3.35-.41,4.74-1.22s2.48-1.96,3.29-3.43h2.1c-.99,2.09-2.36,3.7-4.11,4.82-1.75,1.12-3.75,1.68-6.01,1.68-3.14,0-5.76-1.04-7.86-3.12-2.1-2.08-3.14-4.68-3.14-7.81s1.05-5.65,3.16-7.73c2.11-2.08,4.72-3.12,7.84-3.12s5.72,1.03,7.74,3.1,3.02,4.64,3.02,7.71Zm-10.76-8.99c-2.42,0-4.46.74-6.13,2.23s-2.62,3.39-2.86,5.71h17.82c-.11-1.16-.41-2.24-.91-3.24-.5-.99-1.14-1.84-1.92-2.54s-1.69-1.23-2.72-1.61c-1.03-.37-2.13-.56-3.29-.56Z"/>
      <path class="cls-1" d="m859.5,172.58c2.58,0,4.64.82,6.17,2.46,1.53,1.64,2.3,3.79,2.3,6.45v12.44h-1.98v-12.05c0-2.38-.61-4.23-1.83-5.56-1.22-1.33-2.92-2-5.1-2s-3.94.76-5.46,2.27-2.28,3.31-2.28,5.41v11.93h-1.97v-20.92h1.49l.36,4.22c.81-1.42,1.95-2.55,3.43-3.39,1.48-.84,3.1-1.26,4.88-1.26Z"/>
      <path class="cls-1" d="m895.37,183.39c0,.18-.01.43-.04.74h-19.75c.11,1.63.56,3.07,1.35,4.34s1.86,2.25,3.21,2.96c1.34.71,2.83,1.07,4.47,1.07,1.77,0,3.35-.41,4.74-1.22s2.48-1.96,3.29-3.43h2.1c-.99,2.09-2.36,3.7-4.11,4.82-1.75,1.12-3.75,1.68-6.01,1.68-3.14,0-5.76-1.04-7.86-3.12-2.1-2.08-3.14-4.68-3.14-7.81s1.05-5.65,3.16-7.73c2.11-2.08,4.72-3.12,7.84-3.12s5.72,1.03,7.74,3.1,3.02,4.64,3.02,7.71Zm-10.76-8.99c-2.42,0-4.46.74-6.13,2.23s-2.62,3.39-2.86,5.71h17.82c-.11-1.16-.41-2.24-.91-3.24-.5-.99-1.14-1.84-1.92-2.54s-1.69-1.23-2.72-1.61c-1.03-.37-2.13-.56-3.29-.56Z"/>
      <path class="cls-1" d="m919.55,173.01h1.37v17.9c0,3.38-.93,6.04-2.78,7.96-1.85,1.92-4.39,2.89-7.62,2.89-2.5,0-4.6-.58-6.31-1.74s-2.9-2.79-3.57-4.88h1.98c.59,1.55,1.58,2.75,2.98,3.6s3.04,1.28,4.92,1.28c2.61,0,4.67-.79,6.19-2.36,1.52-1.58,2.28-3.76,2.28-6.55v-2.36c-.62.91-1.37,1.69-2.26,2.36s-1.9,1.19-3.04,1.55c-1.14.36-2.34.54-3.61.54-3.01,0-5.54-.98-7.58-2.94s-3.06-4.42-3.06-7.36,1.03-5.33,3.08-7.32c2.06-1.99,4.57-2.98,7.56-2.98,1.96,0,3.74.44,5.34,1.32,1.6.88,2.87,2.07,3.81,3.57l.32-4.46Zm-15.58,15.94c1.68,1.61,3.78,2.42,6.31,2.42s4.61-.8,6.25-2.4c1.64-1.6,2.46-3.62,2.46-6.06s-.83-4.47-2.48-6.08c-1.65-1.61-3.73-2.42-6.23-2.42s-4.63.81-6.31,2.44c-1.68,1.63-2.52,3.65-2.52,6.06s.84,4.43,2.52,6.04Z"/>
      <path class="cls-1" d="m938.38,194.36c-3.25,0-5.97-1.03-8.14-3.1-2.18-2.07-3.26-4.66-3.26-7.79s1.08-5.72,3.25-7.79,4.88-3.1,8.14-3.1,5.98,1.03,8.14,3.1,3.25,4.66,3.25,7.79-1.08,5.72-3.25,7.79c-2.16,2.07-4.87,3.1-8.12,3.1Zm0-1.86c1.77,0,3.37-.39,4.8-1.16,1.42-.78,2.54-1.85,3.35-3.24.81-1.38,1.21-2.93,1.21-4.63,0-2.61-.89-4.77-2.66-6.47-1.77-1.7-4-2.56-6.69-2.56-1.8,0-3.41.39-4.84,1.16-1.42.78-2.54,1.85-3.35,3.24-.81,1.38-1.21,2.93-1.21,4.63,0,2.58.89,4.73,2.66,6.45s4.02,2.58,6.73,2.58Z"/>
      <path class="cls-1" d="m965.1,194.36c-3.17,0-5.83-1.04-7.98-3.12-2.15-2.08-3.22-4.67-3.22-7.77s1.07-5.72,3.21-7.79c2.14-2.07,4.8-3.1,8-3.1,2.44,0,4.59.63,6.43,1.88s3.12,2.92,3.85,5.02h-1.98c-.73-1.58-1.82-2.81-3.29-3.7-1.46-.89-3.14-1.34-5.02-1.34-2.63,0-4.82.86-6.57,2.58-1.75,1.72-2.62,3.87-2.62,6.45s.88,4.7,2.64,6.43,3.94,2.6,6.55,2.6c1.85,0,3.51-.45,4.98-1.34,1.46-.89,2.59-2.15,3.37-3.78h2.01c-.78,2.14-2.1,3.84-3.95,5.09-1.85,1.25-3.99,1.88-6.41,1.88Z"/>
      <path class="cls-1" d="m980.74,168.67v-2.67h2.46v2.67h-2.46Zm.24,25.26v-20.92h1.97v20.92h-1.97Z"/>
      <path class="cls-1" d="m1000.37,194.36c-3.25,0-5.97-1.03-8.14-3.1-2.18-2.07-3.26-4.66-3.26-7.79s1.08-5.72,3.25-7.79,4.88-3.1,8.14-3.1,5.98,1.03,8.14,3.1,3.25,4.66,3.25,7.79-1.08,5.72-3.25,7.79c-2.16,2.07-4.87,3.1-8.12,3.1Zm0-1.86c1.77,0,3.37-.39,4.8-1.16,1.42-.78,2.54-1.85,3.35-3.24.81-1.38,1.21-2.93,1.21-4.63,0-2.61-.89-4.77-2.66-6.47-1.77-1.7-4-2.56-6.69-2.56-1.8,0-3.41.39-4.84,1.16-1.42.78-2.54,1.85-3.35,3.24-.81,1.38-1.21,2.93-1.21,4.63,0,2.58.89,4.73,2.66,6.45s4.02,2.58,6.73,2.58Z"/>
      <path class="cls-1" d="m1024.19,194.36c-2.47,0-4.45-.57-5.95-1.7s-2.32-2.69-2.48-4.65h1.94c.16,1.45.82,2.57,1.97,3.37,1.16.8,2.68,1.2,4.58,1.2s3.43-.39,4.59-1.16c1.17-.77,1.75-1.82,1.75-3.14,0-.62-.13-1.17-.4-1.65-.27-.48-.58-.85-.95-1.12-.36-.27-.88-.52-1.55-.75-.67-.23-1.25-.39-1.73-.48s-1.16-.21-2.02-.37c-.73-.1-1.28-.19-1.65-.27-.38-.08-.88-.19-1.51-.35-.63-.16-1.13-.32-1.49-.48-.36-.17-.77-.39-1.21-.68s-.79-.59-1.03-.93c-.24-.34-.44-.75-.6-1.24-.16-.49-.24-1.03-.24-1.63,0-1.7.73-3.09,2.18-4.15,1.45-1.06,3.35-1.59,5.68-1.59,1.56,0,2.93.25,4.11.74,1.18.49,2.1,1.19,2.74,2.09.64.9,1.01,1.98,1.09,3.22h-1.89c-.05-.67-.23-1.28-.52-1.82-.3-.54-.7-.99-1.21-1.36-.51-.36-1.13-.64-1.87-.85s-1.57-.31-2.48-.31c-1.77,0-3.2.36-4.27,1.08-1.08.72-1.61,1.68-1.61,2.87,0,.41.06.78.18,1.1.12.32.27.6.44.83s.44.45.79.64c.35.19.67.34.95.45s.69.22,1.21.35c.52.13.95.22,1.27.27.32.05.79.13,1.41.23.73.1,1.28.19,1.67.27.39.08.92.2,1.59.37.67.17,1.2.34,1.57.5.38.17.81.41,1.29.72.48.31.85.65,1.11,1.03.25.37.47.84.65,1.39.17.56.26,1.17.26,1.84,0,1.83-.76,3.31-2.28,4.44-1.52,1.12-3.54,1.68-6.07,1.68Z"/>
    </g>
  </g>
</svg>
