<svg width="32" height="32" viewBox="0 0 1041.72 257.6" fill="none" xmlns="http://www.w3.org/2000/svg">
   <defs>
    <style>
      .cls-1 {
        fill: #f5ac00;
      }

      .cls-1, .cls-2 {
        stroke-width: 0px;
      }

      .cls-2 {
        fill: #ffffff;
      }
    </style>
  </defs>
  <g>
    <rect class="cls-1" x="114.52" y="5.92" width="28.56" height="28.56" transform="translate(52.01 -85.16) rotate(45)"/>
    <rect class="cls-1" x="114.52" y="223.12" width="28.56" height="28.56" transform="translate(52.01 496.35) rotate(-135)"/>
    <rect class="cls-1" x="223.12" y="114.52" width="28.56" height="28.56" transform="translate(496.35 52.01) rotate(135)"/>
    <rect class="cls-1" x="5.92" y="114.52" width="28.56" height="28.56" transform="translate(-85.16 52.01) rotate(-45)"/>
    <path class="cls-2" d="m203.54,128.56l-15.9-15.9,27.03-27.03-42.93-42.93-27.03,27.03-15.9-15.9-15.9,15.9-27.03-27.03-42.93,42.93,27.03,27.03-15.92,15.92,15.9,15.9-27.01,27.01,42.93,42.93,27.01-27.01,15.9,15.9,15.92-15.92,27.03,27.03,42.93-42.93-27.03-27.03,15.9-15.9Zm-64.21,10.34c-5.58,5.58-14.62,5.58-20.2,0-5.58-5.58-5.58-14.62,0-20.2,5.58-5.58,14.62-5.58,20.2,0,5.58,5.58,5.58,14.62,0,20.2Z"/>
  </g>
  <g>
  </g>
</svg>
